<svg width="138" height="33" viewBox="0 0 138 33" fill="none" xmlns="http://www.w3.org/2000/svg">
<g clip-path="url(#clip0_0_15)">
<path d="M20.2829 0.959929V30.3466H0V0.959929H3.6911V12.3524H16.5918V0.959929H20.2829ZM3.6911 27.2585H16.5918V15.4314H3.6911V27.2585ZM32.1795 32.0401H28.4884V0.172058H32.1795V32.0401Z" fill="white"/>
<path d="M74.6904 24.0436H58.2705V33H54.5794V24.0436H38.1594V20.7835H74.6814V24.0436H74.6904ZM60.7493 16.1287H51.7116C45.1526 16.1287 40.3759 13.8647 40.3759 8.25905C40.3759 2.6534 45.1617 0.389404 51.7206 0.389404H60.7584C67.3173 0.389404 72.0488 2.60812 72.0488 8.25905C72.0488 13.91 67.2721 16.1287 60.7584 16.1287H60.7493ZM60.5774 3.8669H51.802C47.8486 3.8669 44.2479 4.90834 44.2479 8.25905C44.2479 11.6098 47.8486 12.6965 51.802 12.6965H60.5774C64.6123 12.6965 68.1767 11.5645 68.1767 8.25905C68.1767 4.95362 64.5761 3.8669 60.5774 3.8669Z" fill="white"/>
<path d="M93.7973 32.0401C83.6377 31.5148 79.0329 25.6465 79.0329 16.5181C79.0329 6.90971 83.4659 0.996155 93.0645 0.996155H103.749V4.08425H92.2413C85.8994 4.08425 82.9502 9.20993 82.9502 16.5634C82.9502 23.9168 86.2523 27.9558 93.4626 28.952C95.5071 29.2146 99.2797 29.3867 101.369 27.9105V18.438H93.4626V15.3499H104.925V29.8666C102.844 31.4333 98.5016 32.3027 93.8064 32.0401H93.7973Z" fill="white"/>
<path d="M138 16.0834C138 25.8639 134.182 32.1216 124.195 32.1216C114.207 32.1216 110.38 26.0812 110.38 16.0834C110.38 6.08562 114.379 0 124.195 0C134.01 0 138 6.42975 138 16.0834ZM134.227 16.0834C134.227 8.82053 131.749 3.12431 124.149 3.12431C116.55 3.12431 114.162 8.82053 114.162 16.0834C114.162 23.3463 116.55 28.9973 124.149 28.9973C131.749 28.9973 134.227 23.2195 134.227 16.0834Z" fill="white"/>
</g>
<defs>
<clipPath id="clip0_0_15">
<rect width="138" height="33" fill="white"/>
</clipPath>
</defs>
</svg>
